<svg xmlns="http://www.w3.org/2000/svg" opacity=".1" viewBox="0 0 1422 800"><defs><linearGradient x1="50%" y1="0%" x2="50%" y2="100%" id="a"><stop stop-color="hsla(206, 2%, 0%,0%)" offset="0%"/><stop stop-color="hsl(331, 90%, 56%)" offset="100%"/></linearGradient></defs><g fill="none" stroke-width="1.5" stroke="url(#a)" stroke-linecap="round"><path d="M1568.52 260.94c69.47 24.17-.18 54.59-163.64 91.39-162 37.4-230.44 82.15-173.12 134.56 148.01 53.42 299.36 114.27 372.26 181.01-41.7 64.34-177.88 129.55-341.52 190.35-119.92 48.26-146.13 82.13-78.29 95.07 127.83-8.94 252.75-42.35 322.39-98.2-10.62-64.48-99.31-132.17-233.03-187.76-140.96-24.72-246.4-11.02-294.59 48.08 13.6 97.34 75.32 219.84 159.69 343.32 88.27 93.48 152.31 136.07 180.21 113.53-9.61-78.66-55.67-191.86-126.76-301.4-89.91-61.69-183.24-51.36-270.4 36.5-81.81 138.42-148.6 281.68-200.61 375.85-41.82 7.99-72.32-74.27-95.57-213.75-17.8-132.44-33.58-200.05-50.44-167.2-15.55 122.17-34.84 279.53-59 397.84-24.16 21.43-52.62-64.11-84.14-213.47-30.21-144.88-60.8-220.54-88.57-198.3-22.31 107.62-36.58 248.37-38.59 360.56 8.17 39.78 32.04-10.79 71.98-130.05 45.29-146.41 97.78-268.23 148.02-329.17 31.42 13.77 38.96 89.83 11.33 196.21-65.14 104.78-165.14 170.87-287.99 181.07C129.2 1119.8 34.3 1026.77-10.95 910.95c16.5-119.22 91.79-217.25 204.22-281.7 105.19-26.98 166.97-18.18 152.43 16.21-94.79 54.14-243.13 111.71-392.5 162.43-89.4 43.32-82.88 68.78 19.33 76.16 145.92-6.9 266.37-28.64 294.44-60.54-86.54-40.53-249.43-84.86-406.76-129.08-66.65-47.1-5.31-90.48 151.9-128.27 158.68-38.26 225.88-69.84 156.41-94-245.35-32.25-222.23-59.92 18.57-59.89 69.75-1.34 17.92-1.78-119.36-5.08-150.17-11.94-231.26-33.1-204.98-68.07C-15.93 289.88 145.04 223.6 277.48 140.6c55.72-90.38 19.44-186.47-82.57-277.85-173.34-94.03-155.88-61.73 26.58 58.24C350.87 5.13 445.86 68.01 492.54 86.68 488.89 47.96 445.07-45 379.79-174.94c-75.71-131.54-139.25-231.03-180.34-266.37-18.39 39.36-8.84 141.49 23.04 270.18C273.06-69.57 334.47-34.71 399.23-88.1c70.09-125.81 135.57-278.1 193.59-395.06 57.47-31.6 106.21 36.92 146.29 177.01 39.45 144.58 71.2 227.71 95.37 206.32 24.16-118.29 40.16-273.19 47.78-390.61 6.99-28.11 4.62 46.58-7.27 188.34-12.45 148.81-33.16 242.63-59.42 248.31-20.92-80.53-39.43-208.06-48.13-328.76 9.99-70.18 41.26-60.83 99.31 22.41 80.75 131.08 182.81 267.7 295.75 371.52 102.53 47.71 182.33 32.03 220.57-32.9-12.09-94.95-73.89-187.3-171.59-252.97-99.21-27.44-172.24-7.97-186.9 51.33 58.5 90.16 180.02 193.82 331.2 295.52 127.18 93.09 186.9 165.02 152.75 213.64-110.87 26.73-252.16 33.69-355.79 27.3-8.59-18.92 88.2-41.22 252.01-61.72 150.92-22.9 214.33-38.99 153.94-46.85-227.92-6.03-236.82 23.38 9.78 56.2l.05.01" opacity=".92"/><path d="M1518.52 564.61c69.12 22.44 17.41 49.74-124.86 81.06-160.54 30.56-259.44 63.55-253.04 96.87 105.24 29.9 253.26 56.55 372.67 76.61 39.02 12.25-21.32 13.51-152.9 1.04-152.05-22.2-265.39-57.99-303.74-105.18 44.17-47.63 146.27-95.4 263.57-134.2 94.61-17.46 130.87-9.77 100.37 29.69-88.64 69.89-210.23 166.27-334.09 278-135.42 149.41-131.87 210.21-38.43 92.16 70.27-102.24 125.9-189.64 159.87-232.48 13.34 21.13 2.35 105.02-27.8 232.86-46.29 133.53-102 233.5-160.78 265.44-63.89-46.56-124.08-156.96-177.89-291.39-53.79-103.8-99.79-137.35-137.71-82.72-37.51 124.17-67.53 270.08-89.96 377.76-22.44 23.65-36.77-46.51-42.95-179.13-4.32-190.55 29.43-130.08 61.93 54.85 18.08 88.78 33.94 107.26 41.34 51.43-8.73-112.58-35.65-246.49-85.84-363.32-70.8-71.69-162.2-82.42-267.05-37.51-100.91 86.04-188.53 183.81-245.84 266.73-14.7 51.94 17.23 58.05 91.87 19.79 94.45-75.7 188.04-173.79 250.19-277.5 4-99.51-57.24-179.8-175.21-235.55-140.67-30.8-264.49-37.4-328.67-26.04 18.33 27.34 113.38 60.85 248.98 94.11 115.14 35.29 160.86 63.12 109.19 81.72-132.07 14.93-290.8 20.22-404.7 17.12-15.06-6.11 77.24-18.34 233.33-35.05 137.83-17.62 187.27-37.99 118.15-60.42-153.2-22.44-306.06-46.41-379.46-72.49 40.93-26.99 175.27-57.82 335.52-94.03 112.36-39.21 127.13-86.06 45.14-141.68C80.36 253.85-48.45 186.17-110.95 112-83.02 39.86 24.99-31.56 170.19-95.75c172.69-62.79 97.58-36.57-59.23 54.28C33.68 30.13 10.28 97.41 43.77 143.72c82.37 8.86 193.16-25.23 308.61-103.65 104.92-109.4 180.4-232.15 221.47-341.56 7.19-68.29-13.5-79.32-51.15-27.65-51.04 96.8-100.78 212.42-142 308.57-35.44 39.4-56.11 6.34-62.77-95.09 2.2-137.98 15.16-267.91 35.23-342.65 24.79 8.3 52.22 98.08 79.52 235.98 28.46 128.2 54.45 196.11 76.89 172.5 22.44-107.65 40.79-251.29 56.03-371.04 16.4-50.23 32.04-10.1 49.56 102.34C637.4-175.44 666-54.31 704.5 4.92c47.35-19.25 107.87-104.6 182.19-221.68 80.1-111.4 167.75-177.02 255.64-178.15 74.5 62.84 130.97 171.98 158.37 297.58-6.48 115.05-48.55 192.75-121.36 221.92C1096 104.28 1016 46.27 963.03-30.72c-4.1-82.32 47.28-147.9 151.04-185.69 131.29-7.36 260.31 18.34 349.02 70.38 19.87 73.38-35.81 156.91-149.76 241.38-125.19 84.03-214.95 157.74-226.45 218.82 78.92 51.35 222.34 89.94 374.36 118.39 94.68 20.65 90.65 35.56-13.02 47.98-151.58 8.99-279.35 19.06-315.89 32.2 77.8 12.39 232.92 29.42 386.14 51.86l.05.01" opacity=".25"/><path d="M1468.52 571.98c68.01 20.71 32.7 36.53-87.12 47.16-211.02 11.98-195.17.16-2.51-25.68 97.02-20.17 118.42-45.78 58.88-74.1-119.93-22.66-258.9-41.21-373.48-50.19-60.07 6.92-52.11 31.33 12.85 76.83 101.28 64.4 203.4 147.02 277.78 242.1 31.13 94.26 9.42 180.32-57 244.94-99.15 31.79-209.58 25.54-312.49-20.21-85.35-73.75-140.73-164.07-165.37-250.42 4.29-57.12 30.4-71.02 68.8-31.63 48.57 87.59 94.64 206.7 132.6 329.61 33.07 93.63 53.25 133.78 61.18 106.85.62-84.74-8.41-203.86-24.13-319.42-19.74-70.63-42.47-72.77-65.86-1.44-24.41 122.76-47.44 256.47-68.15 353.75-20.72 25.29-38.62-30.48-54.54-145.35-16.95-134.65-33.97-243.58-53.29-293.31-23.34 22.91-52.69 106.86-90.88 221.53-45.5 111.71-102.47 183.46-171.42 195.83-73.86-49.14-154.93-146.62-237.5-266.3-72.41-116.01-131.54-201.35-167.75-241.73-7.28 8.67 17.28 58.61 72.99 133.45 73.28 85.82 155.27 160.31 227.28 209.97 39.28 19.79 35.14 4.72-20.45-40.2-98.83-69.53-224.02-152.83-346.86-239.63C-4.44 647.7-32.47 571.66 9.13 509.79c96.1-48.94 218.19-82.32 322.94-102.83 44.36-9.26 9.48-10.84-99.23-8.66-229.21 16.39 87.08 1.29 35.68-26.18-140.16-20.71-285.69-48.11-371.76-81.72 8.54-33.43 107.91-72.62 254.1-116.46 134.86-42.4 205.43-87.4 189.68-132.47C247.91 1.71 119.63-33.49 5.94-60.12-54.87-75.51-39.4-77.14 44.5-62.21 171.85-34.36 303.15 8.65 403.3 63.43c47.68 54.88 35.32 107.35-24.99 147.26-91.45 15.3-184.36 1.95-255.81-44.98-38.41-76.8-33.32-177.12 10.84-287.39C209.6-220.98 303.38-294 400.29-324.25c93.74 18.8 171.04 84.06 228.13 181.59 47.07 141.52 41.53 145.65 16.1-20.33-30.12-173.3-61.35-158.03-57.65 23.93C592.3-28.28 605.35 25.42 626.05.16c20.71-97.24 48.59-228.85 83.5-347.53 35.2-67.26 77.83-59.06 127.54 19.55 49.63 123.55 105.13 252.56 164.25 348.99 54.9 38.63 107.92 11.99 153.78-66.45 32.46-107.73 49.26-209.97 45.32-279.09-23.08-20.92-67.36 13.04-129.18 91.72-64.98 107.91-127.94 221.29-174.59 319.49-14.53 70.21 8.8 102.31 74.34 97.67 98.59-37.47 217.34-95.09 333.25-159.72 84.78-65.44 120.22-117.24 94.12-149.72-78.57-13.58-189.79-4.98-298.68 22.11-65.45 42.99-64.07 96.54 11.92 155.07 128.85 64.22 270.62 126.61 374.96 184.36 27.46 57.3-33.19 107.89-160.05 151.52-138.19 42.12-231.51 78.02-235.99 108.3 90.13 29.71 237.75 54.83 377.93 75.54l.05.01" opacity=".92"/><path d="M1418.52 269.79c66.16 18.99 45.49 32.54-51.5 41.18-137.04 9.08-263.79 14.18-337.1 16.61 2.69 4.56 76.4 8.81 191.71 15.08 120 11.75 202.39 29.26 222.87 55.33-46 35.09-145 81.48-268.22 140.09-118.38 66.27-202.13 141.48-236.16 221.62 18.87 75.76 80.1 144.62 164.1 198.55 90.28 31.49 162.76 36.95 204.17 13.2 6.06-47.93-25.15-116.51-85.63-195.37-82.82-71.25-174.15-124.45-262.88-145.62-82.43 19.96-148.58 80.83-196.57 175.74-31.39 110.89-46.27 218.44-48.97 299.26 8.58 35.22 22.35 16.33 37.04-54.02 18.6-102.04 33.55-211.82 42.89-298.69 9.75-36.48 12.64-11.63 8.25 71.04-4.54 118.27-16.22 239.2-35.2 326.34-18.99 26.36-44.83-16.18-77.27-112.86-32.59-122.67-71.91-236-117.47-309.85-45.14-16.59-95.26 25.4-148.31 110.84-49.13 107.28-96.62 205.33-138.1 270.08-30.2 18.47-47.41-14.67-47.19-90.13 16.83-103.26 52.71-212.54 105.88-308.22 59.47-69.05 122.54-101.31 178.2-96.93 33.32 37.65 38.46 96.89 7.51 164.85-66.29 69.41-162.46 125.75-275.16 162.41-106.42 16.13-188.79 8.33-227.43-20.05 14.27-46.24 79.62-104.52 181.07-168.78 106.28-69.77 189.81-137.3 221.89-199.42-34.39-59.53-129.14-111.03-259.86-154.59C45.06 358.03-37.7 325.26-47.73 297.72c65.98-25.07 187.14-47.04 320.43-67.21 93.23-19.47 111.98-38.47 45.82-57.46-127.17-18.98-263.64-37.5-357.75-55.01-19.4-16.81 43.25-31.28 163.25-42.01 190.06-9.47 217.74 12.33 60.69 47.84C76.64 153.09 9.98 188.54 1.94 227.14c51.46 33.1 148.65 61.12 266.27 78.1 114.51-.87 200.26-21.31 244.22-64.6C510.89 176.83 470.01 94.42 404.12.13 324.33-92.71 250.9-175.65 196.18-235.73c-31.95-26.8-34.22-15.7-9.69 33.57 47.86 75.9 111.79 166.79 183.55 253.11 77.99 58.54 152.31 76.22 218.92 43.85 61.68-78.65 112.61-189.04 153.55-307.04 34.74-96.16 61.88-147.23 83.81-138 18.57 66.5 35.02 174.23 51.22 293.15 15.33 92.93 32.14 133.57 51.12 107.25 18.99-87.11 39.7-206.11 61.35-320.63 20.77-78.94 40.76-98.23 58-54.45 13.88 94.19 21.91 213.03 21.63 325.78-6.49 81.08-23.71 112.35-52.48 91.06-33.71-66.9-75.94-158.97-122.76-252.93-57.43-99.22-72.9-42.56 1.46 88.27 81.87 101.27 181.37 193.55 286.05 266.36 123.07 58.95 125.51 17.86-1.52-48.94-97.85-50.88-176.66-95.83-211.2-130.92 24.95-27.43 107.06-41.74 229.04-43.93 127.71 6.83 226.59 23.03 264.95 45.72-34.39 28.17-132.14 59.09-261.46 90.34-112.68 33.37-169.78 64.7-146.67 92.6 97.85 28.34 236.23 52.31 363.42 71.29l.05.01" opacity=".75"/><path d="M1368.52 201.96c63.57 17.25 55.61 37.23-19.04 60.1-117.79 23.36-242.37 50.5-337.7 82.09-16.99 67.53 166.71 158.58 347.32 272.12 9.27 110.58-164.65 217.67-372.79 288.66-105.62 9.48-56.89-53.47 74.99-175.3 133.64-111.63 180.33-159.42 133.65-87-117.87 172.43-258.11 361.59-381.05 444.55-106.86-81.29-178.16-271.07-225.32-413.28-19.49-4.65-36.64 41.4-52.93 130.08-15.55 111.06-31.68 218.85-48.94 296.15-17.26 26.84-35.24-3.77-53.3-82.41-25.32-162.59-60.05-288.18-8.75-44.13 63.11 98.17 146.51 37.57 211.17-131.12-6.51-184.88-102.76-289.52-281.64-290.01-177.12 85.29-266.77 194.08-197.1 274.61 172.2 40.27 315.16 22.81 280.59-32.43-205.9-82.61-409.25-169.32-405.59-244.02 88.68-38.17 208.18-71.62 322.55-99.82 71.24-28.2 77.45-51.08 13.88-68.34-114.29-17.26-240.19-28.49-337.88-33.91-41.74-5.42-14.3-5.1 71.94.52 301.54 21.55 8.85 32.06 19.83-81.08C317.4 134.26 503.75-24.07 584.38-154.61c-42.4-44.78-154.14 18.91-259.15 167.84-68.03 132.75-65.67 162.42-13 38.98C400.66-153.11 495.8-300.8 576.98-267.9c41.36 81.52 77.13 186.71 106.82 290.74 29.61 75.24 53.18 104.12 70.44 77.32 17.26-77.28 27.81-183.31 31.82-290.95 3.93-85.29 1.28-126.28-7.52-114.99-16.08 155.5-48.43 364.93-77.05 471.55 7.14-57.64 61.61-215.84 182.82-352.34 158.21-36.49 319.52 52.23 407.18 209.08-35.36 167.07-180.77 279.58-339.84 323.31-31.04-17.79 111.85-68.04 341.11-118.8 118.58-53.72 17.27-81.98-210.45-84.41-79.6.96-102 6.94-56.87 17.2 101.08 10.74 228.72 24.88 343.03 42.14l.05.01" opacity=".91"/><path d="M1318.52 490.58c63.41 31.06-87.52 80.25-303.74 142.73-95.59 58.06-1.2 118.82 182.76 167.2 129.85 23.35 101.82 11.31-52.57-45.97-251.67-127.43-191.83-195.23-47.04 10.13 50.42 165.04 41.56 262.97-7.47 232.02-78.12-139.23-161.65-306.69-233.55-382.8-74.1 82.2-128.24 273.55-159.3 436.24-31.07 6.92-37.59-145.71-22.08-338.42 13.31-102.63 40.33-55.29 64.61 91.12-4.8 153.43-47.1 212.78-145.41 154.34C458.03 811.2 301.49 647.1 181.81 525.55c-26.18-54.52 58.1-39.52 216.87 14.82 122.04 79.03 122.21 144.5-30.41 182.44-206.74 21.54-318.81 16.08-235.21-6.07 204.24-29.17 348.87-62.25 285.46-93.31-217.76-31.07-371.82-58.65-324.14-88.07 202.36-36.43 385.52-87.47 414.48-162.84-130.96-91.78-303.6-208.4-391.81-335.32 45.08-102.21 196.18-161.84 367.22-148.05 130.5 80.83 176.07 208.08 152.26 321.72-74.06 26.11-152.14-61.08-207.08-237.26-39.81-169.2-46.74-234.24-31.22-143.64 24.37 180.69 55.73 327.06 86.8 320.19 31.06-162.65 60.36-347.73 94.58-417.98C622.67-179.75 686.1 5.39 779.74 167.4c108.77 53.74 238.01-16.31 359.96-149 71.71-128.66 70.76-180.54-19-143.38C990.38-15.85 876.1 123.31 863.34 251.33c120.53 105.17 321.03 168.37 474.78 198.86-88.87 3.33-317.58 3.57-19.65 40.38l.05.01" opacity=".33"/><path d="M1268.52 616.16c67.93 27.61-40.61 48.14-235.43 58.06-145.47 5.17-148.12-8.05-26.3-43.68 165.71-42.22 264.15-100.85 247.72-161.42-118.63-33.35-280.31-30.61-418.73 28.24-82.63 110.17-93.23 255.88-54.75 394.75 73.09 78.05 143.23 64.59 191.71-43.94 36.53-146.35 45.69-262.28 35.2-274.51-17.29 109.62-42.49 286.27-70.1 426.47-27.61 15.28-56.34-102.76-91.13-277.26-41.59-135.97-100.98-164.54-185.36-87.01-96.34 140.58-211.96 264.62-327.61 318.44-81.04-30.58-110.09-133.04-63.65-265.47 102.23-134.08 231.17-233.35 321.04-289.27-12.32-16.45-135.52-3.85-321.47 19.34-142.06 35.21-155.13 61.02-20.32 70.49 184.16 9.26 287.11.45 219.18-27.16-192.24-27.62-351.89-72.73-362.68-134.07 140.05-61.54 332.07-137.59 454.15-220.66-9.14-71.04-126.98-129.1-270.07-155.22-99.97 13.36-102.16 72.97-18.74 170.86C410 219.37 551.38 289.1 660.04 290.93c69.76-82.56 94.42-231.36 91.9-392.17-24.68-97.78-49.18-84.95-60.83 40.33-13.56 163.83-7.74 276.31 19.88 261.07C738.6 59.99 786.7-111.07 852.34-210.07c63.73 22.86 138.46 154.5 211 321.08 50.37 128.78 71.19 167.02 44 117.74C1041.24 118.63 939.5 5.66 836.87-68.31c-47.23-22.67-12.31 14.24 116.41 90.14 171.84 103.12 314.45 207.23 343.85 297.3-101.81 83.49-278.11 146.94-407.53 193.85 21.41 42.16 186.61 75.55 378.87 103.17l.05.01" opacity=".19"/><path d="M1218.52 352.66c69.47 24.17.14 31.9-159.31 25.47-162.37-4.69-242.68-18.99-213.63-35.22 116.91-3.18 253.66 7.23 347.45 43.46 22.25 64.55-35.91 160.63-144.41 280.07-133.03 115.4-250.92 209.17-334.93 250.63-50.56-24.9-66.75-114.7-63.32-242.82 20.46-110.41 40.13-162.02 49.12-121.78 10.97 122.58 5.62 279.35-18.54 397.66-24.16 21.43-66-63.82-122.53-210.06-54.56-145.03-118.19-229.12-180.52-228.89-45.31 77.85-68.9 192.55-55.58 298.02 46.76 70.68 129.97 80.94 231.33 37 76.83-86.26 106.34-191.41 58.94-293.54-118.96-96.3-277.37-170.35-412-222.67-46.76-38.41 19.79-63.56 172.85-83.23 150.12-15.47 214.55-33.58 145.08-57.75-166.25-24.16-321.79-53.23-377.39-83.33 69.14-25.89 223.71-44.69 381.59-48.16 95.11 10.44 92.47 44.7 12.26 103.77-122.82 64.88-228.56 135.34-283 189.94 3.13 12.27 61.81-26.63 151.01-122.46C511.66 98.14 612.82-38.22 694.97-133.79c71.75-17.96 123.17 52.35 160.02 188.03 31.68 136.93 57.79 217.31 81.95 195.92C961.11 131.87 982.18-20 996.07-133.28c8.72-30.94 1.27 34.41-28.61 162.5-40.27 145.84-101.63 257.33-173.06 307.39-51.98-16.29-75.98-81.41-47.46-165.14C833.03 83.7 967.41 22.31 1115.39-5c105.39 1.02 129.73 30.38 52.35 75.44-140.15 58.1-280.98 116.35-340.83 166.62 64.88 51.99 225.29 91.43 391.56 115.59l.05.01" opacity=".08"/><path d="M1168.52 174.36c68.01 20.71 32.64 42.9-83.8 68.51-149.08 28.62-270.25 66.07-323.98 116.27 24.99 58.03 109.59 131.83 215.98 219.02 101.7 86.16 162.52 170.8 173.38 238.63-34.82 35.64-104.86 31.22-190.2-19.67-95.71-82.99-181.98-186.37-252-281.4-62.39-51.29-108.64-42.84-142.61 32.15-30.32 121.85-54.68 254.98-75.39 352.26-20.71 25.29-36.79-30.45-45.53-142.64-5.09-132.6 3.49-243.2 29.98-303.62 34.13.16 86.3 52.63 150.09 134.25 53.41 94.73 93.72 172.46 101.39 219.24-37.99 16.09-123.37-2.39-246.64-45.17-127.95-62.18-231.13-131.1-271.3-196.94C246.44 497 355.82 439.04 496.91 393.61c108.45-44.5 139.62-77.35 71.61-98.06-140.16-20.71-283.12-28.3-366.74-22.86 4.45 6.37 94.37 26.66 229.15 59.01 181.91 47.36 186.46 100.26 63.17 51.4-85.16-73.93-142.14-176.22-165.68-292.51C332.33-12.58 362.29-83.63 406-98.97c55.71 45.24 110.62 144.04 157.2 268.65 48.13 104.19 83.82 155.74 104.54 130.45 20.72-97.28 25.47-226.21 16.4-340.07-7.52-66.99-24.75-63.65-44.57 2.82-7.83 110.2-3.7 232.15 24.3 336.7 55.45 72.46 142.16 101.44 254.46 92.94 113.26-40.69 212.18-95.59 267.01-149.83-7.53-55.27-80.67-94.96-201.52-117.1-119.6-14.31-197.75-14.08-194.24-3.64 91.57 13.44 238.72 31.69 378.89 52.4l.05.01" opacity=".63"/><path d="M1118.52 402.18c55.96 34.52-135.56 113.73-350.54 220.94-56.46 89.99 58.7 157.43 203.21 141.96 99.3-95.79 90.76-252.05 25.56-356.65-98.22 56.33-178.87 256.12-213.38 441.7-34.52-3.58-19.65-189.06 18.75-382.62 5.39-75.47-39.95-9.03-184.48 108.26-265.64 140.34-31.92 75.94.88 14.31-242.5-34.52-376.59-46.07-277.9-60.4 226.72-45.4 384.93-144.51 401.48-307.46C645.96 59.69 537.19-43.36 480.25 6.8c-33.57 168.26-21.45 339.75 13.07 343.33 34.51-185.58 88.15-371.37 181.53-402.41 116.74 129.9 279.39 322.77 420.79 463.8-32.07 53.93-293.69-37.14 22.83-9.35l.05.01" opacity=".98"/><path d="M1068.52 626.06c67.93 27.62-39.23 54.23-222.83 63.28-153.7-9.56-199.09-63.08-156.47-161.9 100.21-94.95 188.27-167.05 232.72-155.56 29.43 112.4 23.91 288.06-3.71 428.25-27.61 15.28-74.7-101.66-151.99-267.05-92.3-141.06-223.45-200.57-359.87-187.93-78.8 66.94-62.71 138.17 70.75 181.41 163.37 38.95 259.33 43.53 191.4 15.92-192.24-27.62-346.59-84.81-361.34-171.62 117.66-91.09 289.91-205.42 426.1-308.55 78.41-48.83 90.97-18.62 78.71 102.2-32.42 145.15-43.68 250.9-16.06 235.62C823.52 259.94 887.39 95.47 967.67 3.31c60.12 8.75 90.68 110.14 48.48 241.28C916.16 379.6 773.2 476.23 675.76 533.64c34.95 38.8 200.46 64.8 392.71 92.41l.05.01" opacity=".11"/><path d="M1018.52 443.04c68.01 20.71 32.49 12.67-75-19.91-140.25-30.83-260.59-77.27-334.65-119.52-32.18-10.42-29.86 18.38-18.59 99.43 22.67 117.83 29.38 249.81 8.67 347.09-20.71 25.29-66.88-30.44-125.45-135.18-47.15-125.64-81.8-234.19-76.77-306.63 46.92-41.35 145.29-54.06 270.36-56.08 92.31 8.22 119.44 6.89 51.43-13.82-140.17-20.71-277.95-58.85-355.57-102.95-4.74-33.88 61.61-53.49 159.27-39.29 114.3 45.3 210.27 131.89 276.37 242.34 56.81 89.57 93.11 136.9 113.82 111.61 20.72-97.28 23.89-220.87 2.98-323.52-30.2-65.87-93.85-72.7-181-35.14-70.52 69.4-114.93 148.16-95.03 214.88 92.78 68.47 238.94 115.97 379.11 136.68l.05.01" opacity=".13"/><path d="M968.52 182.54c67.94 27.61-36.65 43.23-182.8 97.12-147.57 106.75-232.9 280.3-260.51 420.47-27.62 15.28 7.72-99.58 119.09-233.41C754.26 334 836.46 252.8 768.52 225.19c-192.24-27.62-335.72 3.58-355.19 100.11 60.63 97.64 146.56 190.11 174.17 174.83 27.61-140.17-8.32-291.34-32.76-361.89 55.67-17.69 221.54 16.68 413.78 44.3q0 0 0 0" opacity=".45"/></g></svg>